<svg version="1.1" viewBox="0.0 0.0 643.3727034120735 119.2782152230971" fill="none" stroke="none" stroke-linecap="square" stroke-miterlimit="10" xmlns:xlink="http://www.w3.org/1999/xlink" xmlns="http://www.w3.org/2000/svg"><clipPath id="p.0"><path d="m0 0l643.3727 0l0 119.27821l-643.3727 0l0 -119.27821z" clip-rule="nonzero"/></clipPath><g clip-path="url(#p.0)"><path fill="#000000" fill-opacity="0.0" d="m0 0l643.3727 0l0 119.27821l-643.3727 0z" fill-rule="evenodd"/><path fill="#000000" fill-opacity="0.0" d="m-8.433734 -28.037409l683.748 0l0 174.51968l-683.748 0z" fill-rule="evenodd"/><path fill="#351c75" d="m10.800641 103.8426l0 -89.59375l27.65625 0l0 66.046875l38.39063 0l0 23.546875l-66.046875 0zm78.84801 0l0 -89.59375l66.953125 0l0 22.390627l-40.453125 0l0 44.796875l42.75 0l0 22.40625l-69.25 0zm13.1875 -34.8125l0 -21.0l49.03125 0l0 21.0l-49.03125 0zm103.67589 36.09375q-10.109375 0 -17.859375 -2.234375q-7.734375 -2.25 -13.5625 -6.34375q-5.8125 -4.09375 -10.421875 -9.59375l16.0 -17.921875q6.390625 8.1875 13.359375 10.8125q6.984375 2.625 13.125 2.625q2.4375 0 4.359375 -0.4375q1.921875 -0.453125 2.9375 -1.46875q1.03125 -1.03125 1.03125 -2.828125q0 -1.671875 -1.09375 -2.8125q-1.078125 -1.15625 -2.875 -1.984375q-1.796875 -0.84375 -3.90625 -1.40625q-2.109375 -0.578125 -4.09375 -0.953125q-1.984375 -0.390625 -3.515625 -0.78125q-7.6875 -1.796875 -13.453125 -4.34375q-5.75 -2.5625 -9.59375 -6.140625q-3.84375 -3.59375 -5.703125 -8.203125q-1.84375 -4.609375 -1.84375 -10.375q0 -6.515625 3.0 -11.890627q3.015625 -5.390625 8.0625 -9.21875q5.0625 -3.84375 11.515625 -5.890625q6.46875 -2.046875 13.390625 -2.046875q10.109375 0 16.890625 1.859375q6.78125 1.84375 11.390625 5.3125q4.609375 3.453125 7.9375 8.0625l-16.125 15.484377q-2.8125 -2.6875 -5.890625 -4.40625q-3.078125 -1.734375 -6.34375 -2.5625q-3.25 -0.84375 -6.453125 -0.84375q-2.953125 0 -5.0 0.453125q-2.046875 0.4375 -3.203125 1.40625q-1.140625 0.953125 -1.140625 2.625q0 1.65625 1.46875 2.75q1.46875 1.09375 3.703125 1.859375q2.25 0.765625 4.484375 1.21875q2.25 0.4375 3.78125 0.703125q7.03125 1.28125 12.921875 3.515625q5.890625 2.234375 10.296875 5.625q4.421875 3.390625 6.796875 8.453125q2.375 5.0625 2.375 11.96875q0 9.859375 -4.9375 16.515625q-4.921875 6.65625 -13.25 10.046875q-8.3125 3.390625 -18.5625 3.390625zm53.001114 -1.28125l0 -85.765625l25.984375 0l0 85.765625l-25.984375 0zm-10.624985 -46.71875l0 -21.765625l47.874985 0l0 21.765625l-47.874985 0zm59.383255 46.71875l0 -68.484375l24.078125 0l1.53125 22.78125l-5.765625 -3.578125q1.671875 -5.890625 5.25 -10.5625q3.578125 -4.671875 8.640625 -7.359375q5.0625 -2.6875 10.8125 -2.6875q2.3125 0 4.359375 0.328125q2.046875 0.3125 3.96875 0.828125l-7.171875 28.796875q-1.28125 -0.890625 -4.03125 -1.65625q-2.75 -0.78125 -5.953125 -0.78125q-2.296875 0 -4.15625 0.71875q-1.859375 0.703125 -3.078125 2.109375q-1.21875 1.40625 -1.859375 3.328125q-0.640625 1.921875 -0.640625 4.46875l0 31.75l-25.984375 0zm47.748383 0l35.96875 -89.59375l21.765625 0l35.703125 89.59375l-27.390625 0l-14.328125 -39.171875q-1.40625 -3.96875 -2.4375 -6.78125q-1.015625 -2.8125 -1.796875 -5.3125q-0.765625 -2.5 -1.53125 -5.375q-0.765625 -2.875 -1.53125 -6.84375l4.34375 0q-0.765625 3.96875 -1.53125 6.84375q-0.765625 2.875 -1.609375 5.375q-0.828125 2.5 -1.921875 5.3125q-1.078125 2.8125 -2.484375 6.78125l-14.34375 39.171875l-26.875 0zm17.921875 -13.3125l8.0625 -18.8125l41.609375 0l7.28125 18.8125l-56.953125 0zm83.19501 13.3125l0 -89.59375l39.421875 0q10.125 0 18.56253 3.328125q8.453125 3.328125 14.71875 9.28125q6.28125 5.937502 9.671875 14.140627q3.390625 8.1875 3.390625 18.046875q0 9.71875 -3.390625 17.984375q-3.390625 8.25 -9.671875 14.203125q-6.265625 5.953125 -14.71875 9.28125q-8.4375305 3.328125 -18.56253 3.328125l-39.421875 0zm27.65625 -17.03125l-4.734375 -6.515625l15.875 0q4.21875 0 7.671875 -1.59375q3.453125 -1.609375 6.015625 -4.421875q2.5625305 -2.828125 3.9687805 -6.71875q1.40625 -3.90625 1.40625 -8.515625q0 -4.609375 -1.40625 -8.515625q-1.40625 -3.90625 -3.9687805 -6.71875q-2.5625 -2.8125 -6.015625 -4.40625q-3.453125 -1.609375 -7.671875 -1.609375l-16.265625 0l5.125 -6.265627l0 55.28125zm73.463776 17.03125l0 -89.59375l66.953125 0l0 22.390627l-40.453125 0l0 44.796875l42.75 0l0 22.40625l-69.25 0zm13.1875 -34.8125l0 -21.0l49.03125 0l0 21.0l-49.03125 0z" fill-rule="nonzero"/><path fill="#351c75" d="m533.80634 45.152897l0.0126953125 32.553776c0.0025024414 6.4045258 -2.5393066 12.546745 -7.066223 17.075432c-4.5269165 4.5286865 -10.668152 7.072876 -17.072693 7.072876l-47.82019 0c-3.6621094E-4 0 -6.713867E-4 -3.0517578E-4 -6.713867E-4 -6.713867E-4l-0.030822754 -80.849724c0 -3.7193298E-4 3.0517578E-4 -6.7329407E-4 6.713867E-4 -6.7329407E-4l47.81952 6.7329407E-4c13.336731 0 24.152527 10.811567 24.157715 24.148312z" fill-rule="evenodd"/><path fill="#000000" fill-opacity="0.0" d="m530.93634 91.663376l-19.716522 -19.590546" fill-rule="evenodd"/><path stroke="#ffffff" stroke-width="12.0" stroke-linejoin="round" stroke-linecap="butt" d="m530.93634 91.663376l-19.716522 -19.590546" fill-rule="evenodd"/><path fill="#000000" fill-opacity="0.0" d="m478.03345 59.222435c0 -10.532551 8.862671 -19.070866 19.795288 -19.070866c5.2500305 0 10.285034 2.009243 13.9973755 5.585724c3.7123413 3.5764847 5.7979126 8.427231 5.7979126 13.485142c0 10.532547 -8.862671 19.070862 -19.795288 19.070862c-10.932617 0 -19.795288 -8.538315 -19.795288 -19.070862z" fill-rule="evenodd"/><path stroke="#ffffff" stroke-width="12.0" stroke-linejoin="round" stroke-linecap="butt" d="m478.03345 59.222435c0 -10.532551 8.862671 -19.070866 19.795288 -19.070866c5.2500305 0 10.285034 2.009243 13.9973755 5.585724c3.7123413 3.5764847 5.7979126 8.427231 5.7979126 13.485142c0 10.532547 -8.862671 19.070862 -19.795288 19.070862c-10.932617 0 -19.795288 -8.538315 -19.795288 -19.070862z" fill-rule="evenodd"/></g></svg>